<svg xmlns="http://www.w3.org/2000/svg" viewBox="0 0 30 30"><path d="M27.715 12.299L5.08 1.347a2.984 2.984 0 0 0-3.352.506 2.982 2.982 0 0 0-.74 3.309L4.923 15 .987 24.839a2.981 2.981 0 0 0 .74 3.308 2.984 2.984 0 0 0 3.352.507l22.635-10.952c1.044-.506 1.693-1.541 1.693-2.701s-.648-2.196-1.692-2.702zm-24.87-7.88a.98.98 0 0 1 .247-1.104c.084-.079.33-.275.675-.275.134 0 .282.029.442.107L26.638 14H6.677L2.845 4.419zm1.364 22.434c-.57.277-1-.06-1.118-.169a.979.979 0 0 1-.246-1.103L6.677 16h19.961L4.209 26.853z"/></svg>